<svg width="18" height="18" viewBox="0 0 18 18" fill="none" xmlns="http://www.w3.org/2000/svg">
<path d="M3.28669 0C1.46601 0 0 1.44565 0 3.24104V14.509C0 16.3044 1.46601 17.75 3.28669 17.75H9.47983V10.8109H7.61908V8.31255H9.47983V6.17812C9.47983 4.50119 10.5792 2.96148 13.1119 2.96148C14.1373 2.96148 14.8956 3.05856 14.8956 3.05856L14.8359 5.39158C14.8359 5.39158 14.0626 5.38437 13.2187 5.38437C12.3054 5.38437 12.159 5.79933 12.159 6.48821V8.31257H14.9085L14.7887 10.8109H12.159V17.75H14.7133C16.534 17.75 18 16.3044 18 14.509V3.24106C18 1.44567 16.534 1.775e-05 14.7133 1.775e-05H3.28667L3.28669 0Z" fill="#333333"/>
</svg>
