<svg width="18" height="18" viewBox="0 0 18 18" fill="none" xmlns="http://www.w3.org/2000/svg">
<path d="M8.99758 5.9153C7.345 5.9153 5.99636 7.2452 5.99636 8.87483C5.99636 10.5045 7.345 11.8344 8.99758 11.8344C10.6502 11.8344 11.9988 10.5045 11.9988 8.87483C11.9988 7.2452 10.6502 5.9153 8.99758 5.9153ZM17.999 8.87483C17.999 7.64928 18.0103 6.43482 17.9405 5.21149C17.8707 3.79056 17.5419 2.52948 16.4883 1.49042C15.4323 0.449142 14.1557 0.127212 12.7148 0.0583858C11.472 -0.0104407 10.2404 0.000660388 8.99983 0.000660388C7.75702 0.000660388 6.52546 -0.0104407 5.28489 0.0583858C3.84395 0.127212 2.5651 0.451363 1.51141 1.49042C0.455469 2.5317 0.129004 3.79056 0.0592081 5.21149C-0.0105877 6.43704 0.000669689 7.6515 0.000669689 8.87483C0.000669689 10.0982 -0.0105877 11.3148 0.0592081 12.5382C0.129004 13.9591 0.45772 15.2202 1.51141 16.2592C2.56736 17.3005 3.84395 17.6225 5.28489 17.6913C6.52771 17.7601 7.75927 17.749 8.99983 17.749C10.2426 17.749 11.4742 17.7601 12.7148 17.6913C14.1557 17.6225 15.4346 17.2983 16.4883 16.2592C17.5442 15.218 17.8707 13.9591 17.9405 12.5382C18.0125 11.3148 17.999 10.1004 17.999 8.87483V8.87483ZM8.99758 13.4285C6.44215 13.4285 4.3798 11.3948 4.3798 8.87483C4.3798 6.3549 6.44215 4.32119 8.99758 4.32119C11.553 4.32119 13.6154 6.3549 13.6154 8.87483C13.6154 11.3948 11.553 13.4285 8.99758 13.4285ZM13.8045 5.19817C13.2078 5.19817 12.726 4.72304 12.726 4.13469C12.726 3.54633 13.2078 3.07121 13.8045 3.07121C14.4011 3.07121 14.8829 3.54633 14.8829 4.13469C14.8831 4.2744 14.8554 4.41277 14.8012 4.54187C14.7471 4.67098 14.6677 4.78829 14.5675 4.88707C14.4673 4.98586 14.3483 5.06419 14.2174 5.11757C14.0865 5.17096 13.9462 5.19834 13.8045 5.19817V5.19817Z" fill="#333333"/>
</svg>
