<svg width="40" height="38" viewBox="0 0 40 38" fill="none" xmlns="http://www.w3.org/2000/svg">
<path d="M34.032 11.1679C34.0219 11.1179 34.007 11.0687 33.9875 11.0211C33.968 10.9742 33.9438 10.9289 33.9156 10.8867C33.8867 10.8437 33.8547 10.8039 33.818 10.7679C33.782 10.732 33.7422 10.6992 33.6991 10.6711C33.657 10.6429 33.6117 10.6187 33.5648 10.5992C33.518 10.5797 33.4687 10.564 33.4187 10.5547C33.3179 10.5344 33.214 10.5344 33.1132 10.5547C33.0632 10.564 33.0141 10.5797 32.9672 10.5992C32.9203 10.6187 32.875 10.6422 32.832 10.6711C32.7898 10.6992 32.7492 10.732 32.7133 10.7679C32.6773 10.8039 32.6445 10.8437 32.6164 10.8867C32.5882 10.9289 32.5641 10.9742 32.5445 11.0211C32.525 11.0687 32.5102 11.1179 32.5 11.1679C32.4898 11.2179 32.4844 11.2695 32.4844 11.3203C32.4844 11.3711 32.4898 11.4226 32.5 11.4726C32.5101 11.5226 32.525 11.5719 32.5445 11.6187C32.5641 11.6664 32.5883 11.7117 32.6164 11.7539C32.6445 11.7969 32.6773 11.8367 32.7133 11.8726C32.7492 11.9086 32.7898 11.9414 32.832 11.9695C32.8749 11.9976 32.9202 12.0219 32.9672 12.0414C33.014 12.0609 33.0632 12.0758 33.1132 12.0859C33.164 12.0961 33.2148 12.1015 33.2655 12.1015C33.4718 12.1015 33.6726 12.018 33.818 11.8726C33.8547 11.8367 33.8867 11.7969 33.9156 11.7539C33.9438 11.7117 33.968 11.6664 33.9875 11.6187C34.007 11.5719 34.0219 11.5226 34.032 11.4726C34.0422 11.4226 34.0469 11.3711 34.0469 11.3203C34.0469 11.2695 34.0422 11.2179 34.032 11.1679Z" fill="#333333"/>
<path d="M39.2188 0.108398H0.78125C0.349766 0.108398 0 0.458164 0 0.889648V7.64371C0 8.07519 0.349766 8.42496 0.78125 8.42496H1.8757V37.1103C1.8757 37.5418 2.22547 37.8915 2.65695 37.8915H37.343C37.7745 37.8915 38.1243 37.5418 38.1243 37.1103V8.42496H39.2188C39.6502 8.42496 40 8.07519 40 7.64371V0.889648C40 0.458164 39.6502 0.108398 39.2188 0.108398ZM14.8502 1.6709H25.1498V6.86246H14.8502V1.6709ZM14.8502 8.42496H25.1498V18.6308L23.4091 17.4234C23.1413 17.2377 22.7864 17.2377 22.5187 17.4233L20 19.1695L17.4812 17.4232C17.3473 17.3304 17.1917 17.284 17.0361 17.284C16.8804 17.284 16.7247 17.3305 16.5908 17.4233L14.8502 18.6307V8.42496ZM1.5625 6.86246V1.6709H13.2877V6.86246H1.5625ZM13.2877 8.42496V10.539H3.4382V8.42496H13.2877V8.42496ZM21.2149 22.5448V36.329H3.4382V12.1014H13.2877V20.1235C13.2877 20.4142 13.4491 20.6808 13.7067 20.8157C13.9643 20.9505 14.2755 20.9311 14.5143 20.7654L17.0362 19.0161L19.5548 20.7622C19.8226 20.9478 20.1774 20.9478 20.4451 20.7622L22.9638 19.0161L25.4857 20.7654C25.6189 20.8578 25.7746 20.9047 25.931 20.9047C26.0549 20.9047 26.1794 20.8752 26.2932 20.8157C26.5508 20.6808 26.7122 20.4142 26.7122 20.1235V12.1014H30.1389C30.5703 12.1014 30.9202 11.7517 30.9202 11.3202C30.9202 10.8887 30.5703 10.5389 30.1389 10.5389H26.7122V8.42488H36.5617V21.7636H21.9962C21.5648 21.7636 21.2149 22.1133 21.2149 22.5448ZM36.5618 36.329H22.7774V23.3261H36.5618V36.329ZM38.4375 6.86246H26.7123V1.6709H38.4375V6.86246Z" fill="#333333"/>
<path d="M35.2027 28.153C35.0269 26.4142 33.6162 25.1063 31.9107 25.1063C31.0809 25.1063 30.3285 25.4401 29.7592 26.0345C29.1434 25.4601 28.3096 25.1063 27.4642 25.1063C25.7736 25.1063 24.4734 26.3578 24.2939 28.1533C24.2705 28.3122 24.2364 28.7333 24.3904 29.3534C24.6232 30.2901 25.1571 31.139 25.9402 31.813L29.1962 34.5603C29.3542 34.6948 29.5512 34.7621 29.7482 34.7621C29.945 34.7621 30.1418 34.6951 30.2998 34.5608L33.5619 31.8082C34.3393 31.1397 34.8731 30.2908 35.1061 29.3534C35.2603 28.733 35.226 28.3117 35.2027 28.153ZM33.5896 28.9766C33.4353 29.598 33.0734 30.1674 32.5486 30.6188L29.7482 32.9818L26.9536 30.6237C26.423 30.167 26.0611 29.5975 25.9068 28.9767C25.8253 28.6481 25.8339 28.4462 25.838 28.3958C25.8458 28.3651 25.8432 28.3651 25.847 28.325C25.9242 27.5005 26.4541 26.6687 27.4641 26.6687C28.1318 26.6687 28.8097 27.1032 29.0758 27.7018C29.2013 27.9838 29.481 28.1656 29.7897 28.1656C29.7897 28.1656 29.7898 28.1656 29.7899 28.1656C30.0986 28.1655 30.3784 27.9837 30.5037 27.7016C30.6751 27.3159 31.0857 26.6687 31.9107 26.6687C32.8284 26.6687 33.5597 27.3653 33.6496 28.3251C33.6533 28.3651 33.6506 28.3651 33.6585 28.3958C33.6626 28.4462 33.6713 28.6481 33.5896 28.9766Z" fill="#333333"/>
</svg>
