<svg width="52" height="40" viewBox="0 0 52 40" fill="none" xmlns="http://www.w3.org/2000/svg">
<path d="M44.2028 32.935C44.2028 35.7952 42.4693 38.1353 40.3026 38.1353C38.1358 38.1353 36.4023 35.7952 36.4023 32.935C36.4023 30.0749 38.1358 27.7347 40.3026 27.7347C42.4693 27.7347 44.2028 30.0749 44.2028 32.935Z" fill="#FECC00"/>
<path d="M13.0875 32.935C13.0875 35.7952 11.3541 38.1353 9.18733 38.1353C7.02057 38.1353 5.28711 35.7952 5.28711 32.935C5.28711 30.0749 7.02057 27.7347 9.18733 27.7347C11.3541 27.7347 13.0875 30.0749 13.0875 32.935Z" fill="#FECC00"/>
<path d="M50.2694 16.4674H45.0691L37.8754 8.49362C37.5287 8.06022 36.9219 7.80021 36.4019 7.80021H26.868V3.37996C26.868 1.99325 25.7413 0.866455 24.3545 0.866455H5.9803C4.59359 0.866455 3.4668 1.99315 3.4668 3.37996V22.5344H26.8681V32.935H36.402C36.402 30.0748 38.7421 27.7347 41.6023 27.7347C44.4625 27.7347 46.8026 30.0748 46.8026 32.935H50.0094C50.6161 32.935 51.1361 32.4149 51.1361 31.8083V18.1142C51.1362 17.5941 50.6162 16.8141 50.2694 16.4674Z" fill="#FED100"/>
<path d="M27.7349 23.4013H0V3.38019C0 1.47345 1.47345 0 3.38019 0H24.4414C26.2615 0 27.7349 1.47345 27.7349 3.38019V23.4013ZM1.73346 21.6678H26.0014V3.38019C26.0014 2.51351 25.308 1.73346 24.3547 1.73346H3.38019C2.42677 1.73346 1.73346 2.42687 1.73346 3.38019V21.6678Z" fill="#333333"/>
<path d="M41.6021 39.0021C38.2219 39.0021 35.5352 36.3153 35.5352 32.9351C35.5352 29.5549 38.2219 26.8682 41.6021 26.8682C44.9823 26.8682 47.6691 29.5549 47.6691 32.9351C47.6691 36.3153 44.9823 39.0021 41.6021 39.0021ZM41.6021 28.6015C39.1754 28.6015 37.2685 30.5083 37.2685 32.9351C37.2685 35.362 39.1753 37.2687 41.6021 37.2687C44.0289 37.2687 45.9357 35.362 45.9357 32.9351C45.9357 30.5083 44.0289 28.6015 41.6021 28.6015Z" fill="#333333"/>
<path d="M10.401 39.0021C7.02077 39.0021 4.33398 36.3153 4.33398 32.9351C4.33398 29.5549 7.02077 26.8682 10.401 26.8682C13.7811 26.8682 16.4679 29.5549 16.4679 32.9351C16.4679 36.3153 13.7811 39.0021 10.401 39.0021ZM10.401 28.6015C7.97419 28.6015 6.06735 30.5083 6.06735 32.9351C6.06735 35.362 7.97409 37.2687 10.401 37.2687C12.8278 37.2687 14.7346 35.362 14.7346 32.9351C14.7346 30.5083 12.8277 28.6015 10.401 28.6015Z" fill="#333333"/>
<path d="M50.7024 23.4013H35.9682C35.4482 23.4013 35.1016 23.0547 35.1016 22.5346C35.1016 22.0146 35.4482 21.668 35.9682 21.668H50.7024C51.2225 21.668 51.5691 22.0146 51.5691 22.5346C51.5691 23.0546 51.2225 23.4013 50.7024 23.4013Z" fill="#333333"/>
<path d="M13.8674 15.6008H0.866681C0.346652 15.6008 0 15.2541 0 14.7341C0 14.2141 0.346652 13.8674 0.866681 13.8674H13.8674C14.3874 13.8674 14.7341 14.2141 14.7341 14.7341C14.7342 15.254 14.3874 15.6008 13.8674 15.6008Z" fill="#333333"/>
<path d="M10.4006 11.2671H0.866681C0.346652 11.2671 0 10.9204 0 10.4004C0 9.88034 0.346652 9.53369 0.866681 9.53369H10.4006C10.9206 9.53369 11.2673 9.88034 11.2673 10.4004C11.2673 10.9204 10.9206 11.2671 10.4006 11.2671Z" fill="#333333"/>
<path d="M49.2299 33.8019H45.9363V32.9353C45.9363 30.5085 44.0296 28.6017 41.6027 28.6017C39.176 28.6017 37.2691 30.5084 37.2691 32.9353V33.8019H26.002V6.93372H36.6625C37.876 6.93372 38.916 7.45375 39.6961 8.40717L45.4164 15.6009L45.503 15.6876H49.1432C50.7033 15.6876 51.9168 16.9876 51.9168 18.4611V31.0284C52.0034 32.5019 50.7033 33.8019 49.2299 33.8019ZM47.5832 32.0685H49.1432C49.7499 32.0685 50.1833 31.5485 50.1833 30.9418V18.4611C50.1833 17.8544 49.6633 17.421 49.1432 17.421H45.503C44.8964 17.421 44.3764 17.161 44.0296 16.7276L38.3093 9.53386C37.9626 8.92719 37.3559 8.66718 36.6625 8.66718H27.7354V32.0685H35.6225C36.0559 29.1217 38.5693 26.8682 41.6028 26.8682C44.6364 26.8682 47.1498 29.1217 47.5832 32.0685Z" fill="#333333"/>
<path d="M27.7349 33.802H14.7342V32.9353C14.7342 30.5086 12.8274 28.6017 10.4006 28.6017C7.97371 28.6017 6.06697 30.5085 6.06697 32.9353V33.802H2.60014C1.1267 33.802 0 32.6753 0 31.2019V21.668H27.7349V33.802ZM16.3809 32.0685H26.0014V23.4014H1.73346V31.2019C1.73346 31.7219 2.08012 32.0685 2.60014 32.0685H4.42025C4.85364 29.1218 7.36704 26.8683 10.4006 26.8683C13.4341 26.8683 15.9475 29.1218 16.3809 32.0685Z" fill="#333333"/>
<path d="M12.1329 32.935C12.1329 33.8884 11.3529 34.6685 10.3995 34.6685C9.44606 34.6685 8.66602 33.8884 8.66602 32.935C8.66602 31.9816 9.44606 31.2015 10.3995 31.2015C11.3529 31.2015 12.1329 31.9817 12.1329 32.935Z" fill="#333333"/>
<path d="M43.3361 32.935C43.3361 33.8884 42.556 34.6685 41.6026 34.6685C40.6492 34.6685 39.8691 33.8884 39.8691 32.935C39.8691 31.9816 40.6492 31.2015 41.6026 31.2015C42.556 31.2016 43.3361 31.9817 43.3361 32.935Z" fill="#333333"/>
<path d="M44.8086 14.7341H33.5413C32.2412 14.7341 31.2012 13.6941 31.2012 12.394V6.93372H36.6615C37.8749 6.93372 38.915 7.45375 39.695 8.40717L44.8086 14.7341ZM32.9346 8.66718V12.394C32.9346 12.7407 33.1946 13.0007 33.5413 13.0007H41.2551L38.3949 9.44712C37.9615 8.92709 37.3549 8.66708 36.6615 8.66708L32.9346 8.66718Z" fill="#333333"/>
</svg>
