<svg width="18" height="18" viewBox="0 0 18 18" fill="none" xmlns="http://www.w3.org/2000/svg">
<path d="M2 0C1.46957 0 0.960859 0.207787 0.585786 0.57765C0.210714 0.947514 0 1.44916 0 1.97222V15.7778C0 16.3008 0.210714 16.8025 0.585786 17.1723C0.960859 17.5422 1.46957 17.75 2 17.75H16C16.5304 17.75 17.0391 17.5422 17.4142 17.1723C17.7893 16.8025 18 16.3008 18 15.7778V1.97222C18 1.44916 17.7893 0.947514 17.4142 0.57765C17.0391 0.207787 16.5304 0 16 0H2ZM2.5 5.42361H4C4.36 5.42361 4.5 5.58139 4.64 5.98569C5.36 8.05653 6.57 9.86111 7.07 9.86111C7.26 9.86111 7.35 9.78222 7.35 9.31875V7.17889C7.29 6.19278 6.76 6.10403 6.76 5.75889C6.76 5.59125 6.9 5.42361 7.14 5.42361H9.45C9.77 5.42361 9.87 5.59125 9.87 5.95611V8.83555C9.87 9.14125 10 9.24972 10.1 9.24972C10.29 9.24972 10.45 9.14125 10.79 8.80597C11.85 7.6325 12.6 5.83778 12.6 5.83778C12.7 5.62083 12.87 5.42361 13.24 5.42361H14.71C15.16 5.42361 15.26 5.65042 15.16 5.95611C14.97 6.80417 13.18 9.29903 13.18 9.29903C13 9.54555 12.96 9.66389 13.18 9.94986C13.33 10.1569 13.85 10.5908 14.19 10.9951C14.83 11.6953 15.3 12.2869 15.44 12.6912C15.56 13.1054 15.35 13.3125 14.93 13.3125H13.45C12.89 13.3125 12.73 12.8687 11.73 11.8826C10.85 11.0543 10.5 10.9458 10.26 10.9458C9.96 10.9458 9.87 11.0247 9.87 11.4487V12.7504C9.87 13.1054 9.76 13.3125 8.82 13.3125C7.26 13.3125 5.54 12.3757 4.33 10.65C2.5 8.12555 2 6.22236 2 5.83778C2 5.62083 2.08 5.42361 2.5 5.42361Z" fill="#333333"/>
</svg>
