<svg width="18" height="18" viewBox="0 0 18 18" fill="none" xmlns="http://www.w3.org/2000/svg">
<path d="M17.2984 1.52372C16.6487 0.44146 15.449 0 13.1581 0H4.84177C2.49834 0 1.27841 0.469936 0.631104 1.62215C0 2.74557 0 4.40085 0 6.69178V11.0583C0 15.4966 0.7488 17.75 4.84177 17.75H13.1581C15.1448 17.75 16.2458 17.3605 16.958 16.4054C17.6884 15.4259 18 13.8268 18 11.0583V6.69178C18 4.2758 17.9512 2.61077 17.2984 1.52372ZM11.5561 9.47788L7.77966 12.2434C7.69524 12.3052 7.60291 12.3359 7.5107 12.3359C7.4063 12.3359 7.30214 12.2965 7.20987 12.2182C7.03614 12.0707 6.93006 11.8069 6.93006 11.5223V6.00901C6.93006 5.7249 7.03585 5.46129 7.20924 5.3137C7.38267 5.16612 7.59838 5.15604 7.77832 5.28702L11.5548 8.0347C11.7469 8.17449 11.8675 8.45242 11.8678 8.75564C11.8681 9.05912 11.7479 9.33745 11.5561 9.47788Z" fill="#333333"/>
</svg>
